red bull where the trail ends premiere web ripped


Duration: 02:25:06.07, start: 0.000000, bitrate: N/A

Stream #0.0: Video: h264 (Main), yuv420p, 640x360 [PAR 1:1 DAR 16:9], 1k fps, 29.97 tbr, 1k tbn, 59.94 tbc (default)

Stream #0.1: Audio: aac, 48000 Hz, stereo, s16 (default)

enjoy